HIERARCHY
ROOT Hips
{
	OFFSET 0.000000 0.000000 0.000000
	CHANNELS 6 Xposition Yposition Zposition Xrotation Yrotation Zrotation
	JOINT LeftUpLeg_virtual
	{
		OFFSET 0.000000 0.000000 0.000000
		CHANNELS 3 Xrotation Yrotation Zrotation
		JOINT LeftUpLeg
		{
			OFFSET 13.026900 -6.336304 -1.092800
			CHANNELS 3 Xrotation Yrotation Zrotation
			JOINT LeftLeg
			{
				OFFSET 0.524474 -46.096886 9.782700
				CHANNELS 3 Xrotation Yrotation Zrotation
				JOINT LeftFoot
				{
					OFFSET -0.524474 -53.427422 -12.948200
					CHANNELS 3 Xrotation Yrotation Zrotation
					JOINT LeftToeBase
					{
						OFFSET 0.192200 -14.009700 16.364100
						CHANNELS 3 Xrotation Yrotation Zrotation
						JOINT LeftToe_End
						{
							OFFSET -1.784700 -0.561700 9.474800
							CHANNELS 3 Xrotation Yrotation Zrotation
							End Site
							{
								OFFSET 0 0 0
							}
						}
					}
				}
			}
		}
	}
	JOINT RightUpLeg_virtual
	{
		OFFSET 0.000000 0.000000 0.000000
		CHANNELS 3 Xrotation Yrotation Zrotation
		JOINT RightUpLeg
		{
			OFFSET -12.883000 -6.336304 -1.092800
			CHANNELS 3 Xrotation Yrotation Zrotation
			JOINT RightLeg
			{
				OFFSET -0.524587 -46.096825 9.782800
				CHANNELS 3 Xrotation Yrotation Zrotation
				JOINT RightFoot
				{
					OFFSET 0.524587 -53.427383 -12.948300
					CHANNELS 3 Xrotation Yrotation Zrotation
					JOINT RightToeBase
					{
						OFFSET -0.192200 -14.009700 16.364100
						CHANNELS 3 Xrotation Yrotation Zrotation
						JOINT RightToe_End
						{
							OFFSET 1.784700 -0.561700 9.474800
							CHANNELS 3 Xrotation Yrotation Zrotation
							End Site
							{
								OFFSET 0 0 0
							}
						}
					}
				}
			}
		}
	}
	JOINT Spine_virtual
	{
		OFFSET 0.000000 0.000000 0.000000
		CHANNELS 3 Xrotation Yrotation Zrotation
		JOINT Spine
		{
			OFFSET 0.072000 7.257294 -0.789700
			CHANNELS 3 Xrotation Yrotation Zrotation
			JOINT Spine1
			{
				OFFSET 0.000000 12.508769 -0.658067
				CHANNELS 3 Xrotation Yrotation Zrotation
				JOINT Spine1_split
				{
					OFFSET 0.000000 12.508769 -0.658067
					CHANNELS 3 Xrotation Yrotation Zrotation
					JOINT Spine2
					{
						OFFSET 0.000000 12.508769 -0.658067
						CHANNELS 3 Xrotation Yrotation Zrotation
						JOINT Neck_virtual
						{
							OFFSET 0.000000 0.000000 0.000000
							CHANNELS 3 Xrotation Yrotation Zrotation
							JOINT Neck
							{
								OFFSET 0.000000 14.033295 7.520400
								CHANNELS 3 Xrotation Yrotation Zrotation
								JOINT Head
								{
									OFFSET 0.000000 8.198502 5.703100
									CHANNELS 3 Xrotation Yrotation Zrotation
									JOINT HeadTop_End
									{
										OFFSET 0.000000 17.760803 13.332701
										CHANNELS 3 Xrotation Yrotation Zrotation
										End Site
										{
											OFFSET 0 0 0
										}
									}
								}
							}
						}
						JOINT LeftShoulder_virtual
						{
							OFFSET 0.000000 0.000000 0.000000
							CHANNELS 3 Xrotation Yrotation Zrotation
							JOINT LeftShoulder
							{
								OFFSET 6.292450 5.785301 -0.669000
								CHANNELS 3 Xrotation Yrotation Zrotation
								JOINT LeftShoulder_split
								{
									OFFSET 6.292450 5.785301 -0.669000
									CHANNELS 3 Xrotation Yrotation Zrotation
									JOINT LeftArm
									{
										OFFSET 13.907140 -6.093903 1.965100
										CHANNELS 3 Xrotation Yrotation Zrotation
										JOINT LeftForeArm
										{
											OFFSET 34.140198 0.000000 0.000000
											CHANNELS 3 Xrotation Yrotation Zrotation
											JOINT LeftHand
											{
												OFFSET 40.960209 0.000000 0.000000
												CHANNELS 3 Xrotation Yrotation Zrotation
												End Site
												{
													OFFSET 0 0 0
												}
											}
										}
									}
								}
							}
						}
						JOINT RightShoulder_virtual
						{
							OFFSET 0.000000 0.000000 0.000000
							CHANNELS 3 Xrotation Yrotation Zrotation
							JOINT RightShoulder
							{
								OFFSET -6.292450 5.785301 -0.669000
								CHANNELS 3 Xrotation Yrotation Zrotation
								JOINT RightShoulder_split
								{
									OFFSET -6.292450 5.785301 -0.669000
									CHANNELS 3 Xrotation Yrotation Zrotation
									JOINT RightArm
									{
										OFFSET -13.907140 -6.093903 1.965100
										CHANNELS 3 Xrotation Yrotation Zrotation
										JOINT RightForeArm
										{
											OFFSET -34.140198 0.000000 0.000000
											CHANNELS 3 Xrotation Yrotation Zrotation
											JOINT RightHand
											{
												OFFSET -40.960209 0.000000 0.000000
												CHANNELS 3 Xrotation Yrotation Zrotation
												End Site
												{
													OFFSET 0 0 0
												}
											}
										}
									}
								}
							}
						}
					}
				}
			}
		}
	}
}
MOTION
Frames: 7
Frame Time: 0.03333333
-0.079145 113.878883 1.215105 0.000000 0.000000 0.000000 -0.587378 -0.363524 -0.336978 -11.995123 4.821516 8.374437 25.062488 4.234331 1.507004 -11.794227 1.178847 -9.448173 -0.000001 -0.000002 0.000002 0.000000 0.000000 0.000000 -0.587378 -0.363524 -0.336978 -11.379537 1.494388 -2.282998 25.568064 -1.412102 -2.390416 -13.467142 -1.050749 5.532411 -0.000107 -0.000001 -0.000001 0.000000 0.000000 0.000000 -0.587378 -0.363524 -0.336978 0.361305 -0.185860 0.288972 -1.750144 -0.199001 0.196420 0.000000 0.000000 0.000000 0.000000 0.000000 0.000000 -1.750109 -0.188404 0.203701 -0.289762 -0.205837 -0.385588 4.702786 -2.136756 3.065841 0.000000 0.000000 0.000000 -1.750109 -0.188404 0.203701 0.993404 -13.202433 -11.017496 0.000000 0.000000 0.000000 16.778889 -19.384207 -67.597371 0.000005 -17.727278 0.000001 0.000000 0.000000 0.000000 -1.750109 -0.188404 0.203701 1.651817 9.058839 10.503890 0.000000 0.000000 0.000000 6.412941 25.534621 64.587519 -0.000010 12.370151 -0.000006 0.000000 0.000000 0.000000 
-0.009506 113.902100 1.183577 0.000000 0.000000 0.000000 -0.563349 -0.332211 -0.250340 -12.013577 4.909779 8.199614 24.993704 4.165812 1.595314 -11.748736 1.171993 -9.471550 -0.000051 0.000006 0.000066 0.000000 0.000000 0.000000 -0.563349 -0.332211 -0.250340 -11.411270 1.429902 -2.483307 25.552752 -1.404520 -2.299822 -13.437385 -1.044619 5.538707 -0.000073 0.000000 -0.000004 0.000000 0.000000 0.000000 -0.563349 -0.332211 -0.250340 0.389135 -0.143547 0.241549 -1.758987 -0.152911 0.185722 0.000000 0.000000 0.000000 0.000000 0.000000 0.000000 -1.758853 -0.144485 0.191302 -0.234933 -0.223743 -0.429562 4.682464 -2.228106 3.016739 0.000000 0.000000 0.000000 -1.758853 -0.144485 0.191302 0.994575 -13.331121 -11.067195 0.000000 0.000000 0.000000 16.711243 -19.428799 -67.559382 -0.000000 -17.694309 -0.000005 0.000000 0.000000 0.000000 -1.758853 -0.144485 0.191302 1.655695 9.081051 10.518684 0.000000 0.000000 0.000000 6.559960 25.463645 64.487313 0.000005 12.345261 -0.000001 0.000000 0.000000 0.000000 
0.103583 113.953262 1.157558 0.000000 0.000000 0.000000 -0.564059 -0.355704 -0.170258 -11.940030 4.905872 8.065593 24.876324 4.214704 1.550258 -11.696018 1.164179 -9.462106 -0.000008 -0.000001 0.000013 0.000000 0.000000 0.000000 -0.564059 -0.355704 -0.170258 -11.381084 1.391519 -2.702603 25.455263 -1.337587 -2.199005 -13.365620 -1.035595 5.549857 -0.000072 0.000000 -0.000001 0.000000 0.000000 0.000000 -0.564059 -0.355704 -0.170258 0.467897 -0.090111 0.203772 -1.726141 -0.094856 0.195358 0.000000 0.000000 0.000000 0.000000 0.000000 0.000000 -1.725987 -0.088045 0.198933 -0.219296 -0.239945 -0.477885 4.665765 -2.296425 2.991046 0.000000 0.000000 0.000000 -1.725987 -0.088045 0.198933 0.991734 -13.323550 -11.148007 0.000000 0.000000 0.000000 16.457983 -19.698175 -67.507329 0.000008 -17.673562 0.000001 0.000000 0.000000 0.000000 -1.725987 -0.088045 0.198933 1.661472 9.155292 10.510909 0.000000 0.000000 0.000000 6.689128 25.490510 64.313013 0.000006 12.254238 -0.000035 0.000000 0.000000 0.000000 
0.256139 114.036781 1.103420 0.000000 0.000000 0.000000 -0.578069 -0.423635 -0.087783 -11.806738 4.800582 7.863559 24.694554 4.438315 1.558298 -11.604288 1.161105 -9.540804 -0.000049 0.000006 0.000056 0.000000 0.000000 0.000000 -0.578069 -0.423635 -0.087783 -11.320621 1.386095 -2.934039 25.271814 -1.256538 -2.121512 -13.225142 -1.030200 5.595274 -0.000097 0.000000 -0.000003 0.000000 0.000000 0.000000 -0.578069 -0.423635 -0.087783 0.596742 -0.017747 0.161451 -1.620710 -0.015913 0.201612 0.000000 0.000000 0.000000 0.000000 0.000000 0.000000 -1.620686 -0.010844 0.202122 -0.183771 -0.218591 -0.586454 4.269680 -2.307494 3.202154 0.000000 0.000000 0.000000 -1.620686 -0.010844 0.202122 0.989896 -13.432067 -11.270858 0.000000 0.000000 0.000000 15.974706 -19.827773 -67.490083 -0.000001 -17.727046 -0.000001 0.000000 0.000000 0.000000 -1.620686 -0.010844 0.202122 1.677951 9.285100 10.547350 0.000000 0.000000 0.000000 6.831335 25.636374 64.012034 0.000008 12.156168 0.000005 0.000000 0.000000 0.000000 
0.443233 114.075203 0.956505 0.000000 0.000000 0.000000 -0.505415 -0.508508 -0.056988 -11.864481 4.295027 7.524861 24.670519 5.122703 1.807293 -11.514340 1.192291 -9.861988 -0.000055 0.000003 0.000058 0.000000 0.000000 0.000000 -0.505415 -0.508508 -0.056988 -11.475643 1.042096 -3.050379 25.179754 -0.835750 -2.255276 -13.074655 -1.018724 5.639948 -0.000116 -0.000000 0.000002 0.000000 0.000000 0.000000 -0.505415 -0.508508 -0.056988 0.792374 0.024685 0.094740 -1.416821 0.032360 0.182690 0.000000 0.000000 0.000000 0.000000 0.000000 0.000000 -1.416967 0.034539 0.181314 -0.196661 -0.283262 -0.562395 3.587528 -2.527386 3.208846 0.000000 0.000000 0.000000 -1.416967 0.034539 0.181314 0.988383 -13.373516 -11.280131 0.000000 0.000000 0.000000 15.352524 -20.245312 -67.493716 0.000003 -17.915183 0.000011 0.000000 0.000000 0.000000 -1.416967 0.034539 0.181314 1.697831 9.302907 10.690755 0.000000 0.000000 0.000000 6.871393 26.197377 63.484682 0.000004 12.093666 0.000001 0.000000 0.000000 0.000000 
0.613196 114.062897 0.706863 0.000000 0.000000 0.000000 -0.325790 -0.655471 -0.177031 -12.200747 3.582980 7.376981 24.875023 5.989480 2.014484 -11.455606 1.238812 -10.266761 -0.000002 0.000002 0.000000 0.000000 0.000000 0.000000 -0.325790 -0.655471 -0.177031 -11.832505 0.807578 -2.848613 25.142324 -0.471127 -2.590253 -12.887040 -1.017105 5.758816 -0.000068 0.000000 0.000000 0.000000 0.000000 0.000000 -0.325790 -0.655471 -0.177031 1.035831 0.043301 0.051310 -1.126574 0.055725 0.161242 0.000000 0.000000 0.000000 0.000000 0.000000 0.000000 -1.126867 0.056063 0.159081 -0.282474 -0.337568 -0.460437 2.552432 -2.645780 3.422394 0.000000 0.000000 0.000000 -1.126867 0.056063 0.159081 0.989573 -13.280079 -11.185791 0.000000 0.000000 0.000000 14.662746 -20.828003 -67.491408 -0.000004 -18.275442 0.000002 0.000000 0.000000 0.000000 -1.126867 0.056063 0.159081 1.729813 9.398952 10.871328 0.000000 0.000000 0.000000 6.780475 27.024043 62.846736 0.000010 12.048648 0.000011 0.000000 0.000000 0.000000 
0.735375 113.934990 0.350071 0.000000 0.000000 0.000000 -0.029429 -1.071853 -0.474681 -12.879088 2.916566 7.662237 25.469338 6.904187 1.911509 -11.525548 1.281324 -10.521776 -0.000002 0.000000 -0.000004 0.000000 0.000000 0.000000 -0.029429 -1.071853 -0.474681 -12.560435 1.047081 -2.454992 25.340910 -0.476745 -2.721308 -12.661555 -1.015496 5.858573 -0.000116 0.000000 -0.000001 0.000000 0.000000 0.000000 -0.029429 -1.071853 -0.474681 1.302935 0.060349 0.039005 -0.812834 0.076874 0.083535 0.000000 0.000000 0.000000 0.000000 0.000000 0.000000 -0.813225 0.075473 0.080566 -0.300028 -0.370209 -0.289493 1.348865 -2.717222 3.887562 0.000000 0.000000 0.000000 -0.813225 0.075473 0.080566 0.995267 -13.605458 -11.218933 0.000000 0.000000 0.000000 13.760380 -20.612739 -67.419028 -0.000011 -18.796436 -0.000010 0.000000 0.000000 0.000000 -0.813225 0.075473 0.080566 1.793079 9.864639 11.018087 0.000000 0.000000 0.000000 6.610201 27.948555 62.187308 -0.000001 12.088196 -0.000007 0.000000 0.000000 0.000000 
